<?xml version="1.0" standalone="no"?>
<!DOCTYPE svg PUBLIC "-//W3C//DTD SVG 20010904//EN" "http://www.w3.org/TR/2001/REC-SVG-20010904/DTD/svg10.dtd">
<svg version="1.0" xmlns="http://www.w3.org/2000/svg" width="500.000000pt" height="500.000000pt" viewBox="0 0 500.000000 500.000000" preserveAspectRatio="xMidYMid meet">

<g transform="translate(0.000000,500.000000) scale(0.100000,-0.100000)" fill="#FE7D42" stroke="none">
  <path d="M3430 4545 c-182 -41 -297 -98 -423 -210 -109 -97 -135 -129 -211 -255 -86 -141 -135 -244 -157 -328 -22 -86 -19 -104 19 -130 40 -28 77 -34 116 -18 39 16 67 52 126 161 117 216 341 338 625 339 188 1 285 -40 361 -151 39 -55 39 -56 38 -152 -1 -88 -4 -105 -42 -201 -41 -103 -134 -267 -200 -353 -18 -23 -58 -76 -89 -117 -31 -41 -79 -101 -107 -132 -28 -31 -98 -109 -156 -174 -58 -65 -143 -159 -190 -209 -47 -51 -137 -150 -200 -220 -63 -71 -142 -158 -176 -194 -285 -308 -306 -341 -394 -601 -41 -123 -53 -173 -57 -240 -5 -80 -4 -86 18 -106 73 -66 180 -85 223 -39 24 26 28 38 76 210 95 338 140 410 479 760 276 285 502 527 542 580 13 17 45 54 71 83 88 98 307 400 359 494 136 250 182 368 201 519 15 125 1 241 -42 336 -35 76 -50 97 -137 185 -70 71 -136 109 -259 148 -90 29 -315 37 -414 15z"/>
  <path d="M1610 4039 c-143 -12 -250 -56 -350 -146 -63 -57 -100 -110 -130 -188 -43 -112 -26 -306 37 -429 25 -49 114 -164 246 -318 325 -379 508 -684 574 -957 14 -58 40 -223 58 -366 30 -234 35 -261 55 -277 28 -23 65 -23 88 0 10 10 26 49 36 87 10 39 40 138 66 220 59 182 74 255 66 312 -6 43 -60 162 -109 239 -14 22 -41 71 -61 110 -41 78 -60 109 -126 209 -126 192 -220 311 -377 478 -92 98 -176 215 -200 280 -8 23 -15 74 -16 112 -1 122 55 210 165 261 57 26 73 29 163 28 88 0 113 -5 205 -36 58 -20 152 -59 209 -87 124 -61 161 -70 196 -47 32 21 55 77 55 134 0 42 -4 50 -52 97 -60 57 -180 134 -313 201 -137 68 -309 97 -485 83z"/>
  <path d="M2161 1024 c-53 -22 -119 -81 -141 -125 -26 -50 -36 -145 -21 -192 71 -213 365 -230 492 -28 57 90 29 207 -69 290 -28 23 -66 48 -86 56 -45 19 -131 19 -175 -1z"/>
</g>
</svg>
